<svg width="1547" height="785" viewBox="0 0 1547 785" fill="none" xmlns="http://www.w3.org/2000/svg">
<path d="M365.416 374.866V600.713H411.231V506.503H518.71V548.967L564.524 430.014V374.866H518.71V464.882H411.231V374.866H365.416Z" fill="#000091"/>
<path d="M1236.6 600.547V374.7H1368.24V412.772H1282.42V466.33H1355.33V504.401H1282.42V562.476H1368.24V600.547H1236.6Z" fill="#4E68BB"/>
<path d="M1072.71 600.547V374.7H1118.52V558.927H1204.34V600.547H1072.71Z" fill="#4E68BB"/>
<path d="M976.678 600.547V374.7H1022.49V600.547H976.678Z" fill="#4E68BB"/>
<path d="M766.672 569.251L799.904 538.6C813.455 556.023 831.522 566.347 849.913 566.347C867.98 566.347 878.95 556.668 878.95 540.536C878.95 498.916 776.351 510.208 776.351 433.743C776.351 397.93 806.034 368.247 849.267 368.247C883.144 368.247 908.956 383.411 928.314 406.318L894.759 436.646C881.531 419.547 866.69 408.254 849.59 408.254C833.458 408.254 822.811 418.579 822.811 432.13C822.811 473.105 925.41 461.49 925.41 538.923C924.765 581.511 891.856 607 850.235 607C812.164 607 786.675 593.126 766.672 569.251Z" fill="#4E68BB"/>
<path d="M518.518 600.547L604.017 374.7H664.028L749.527 600.547H700.808L679.192 541.827H588.853L567.236 600.547H518.518ZM603.049 502.788H664.996L634.022 417.934L603.049 502.788Z" fill="#4E68BB"/>
<path d="M178 600.713V374.866H244.464C291.569 374.866 320.284 398.096 320.284 436.168C320.284 454.558 311.895 470.367 296.086 480.692C319.961 491.339 333.189 510.697 333.189 534.25C333.189 575.548 301.248 600.713 249.303 600.713H178ZM245.432 412.938H223.815V463.915H245.432C262.854 463.915 273.178 454.558 273.178 438.103C273.178 422.294 262.854 412.938 245.432 412.938ZM251.884 501.986H223.815V562.642H251.884C273.178 562.642 286.084 551.35 286.084 532.314C286.084 512.956 273.178 501.986 251.884 501.986Z" fill="#000091"/>
<path d="M967.387 315.23C967.387 332.613 982.155 347.293 999.644 347.293C1017.13 347.293 1031.51 332.613 1031.51 315.23C1031.51 297.846 1017.13 283.167 999.644 283.167C982.155 283.167 967.387 297.846 967.387 315.23Z" fill="#E1000F"/>
<path d="M927.837 293.694L1000.31 235.784L1055.88 280.182V222.397L1000.31 178L882.74 271.943L882.74 355.795C898.041 359.022 914.952 368.702 927.837 379.996V293.694Z" fill="#4E68BB"/>
<path d="M1280.96 178.039V356.909H1235.86V223.199H1118.29V356.909H1073.19V178.039H1280.96Z" fill="#4E68BB"/>
</svg>
