<svg width="16" height="16" viewBox="0 0 16 16" fill="none" xmlns="http://www.w3.org/2000/svg">
<path d="M12.2676 8.7998C13.3721 8.7998 14.2675 9.69529 14.2676 10.7998V11.4668H14.9346V14C14.9346 14.3682 14.6358 14.667 14.2676 14.667H10.2676C9.89941 14.667 9.60059 14.3682 9.60059 14V11.4668H10.2676V10.7998C10.2677 9.69532 11.1631 8.79984 12.2676 8.7998ZM13.4678 1.59961C13.8357 1.59982 14.1346 1.89866 14.1348 2.2666V8.65625C13.6012 8.15312 13.2008 8.10254 12.8008 8.10254V2.93359H4.80078V4.35156C4.95707 4.35156 5.11372 4.40618 5.23926 4.51562L8.57227 7.42188C8.71722 7.54832 8.80059 7.73146 8.80078 7.92383V13.5996H1.46777C1.0998 13.5995 0.800939 13.3016 0.800781 12.9336V7.92383C0.800976 7.73141 0.885236 7.54833 1.03027 7.42188L3.46777 5.2959V2.2666C3.46791 1.89853 3.76667 1.59961 4.13477 1.59961H13.4678ZM2.13477 8.22754V12.2666H4.13477V9.59961H5.46777V12.2666H7.46777V8.22754L4.80078 5.90234L2.13477 8.22754ZM12.2676 10.1348C11.9258 10.1348 11.6007 10.4343 11.6006 10.8008V11.4678H12.9346V10.8008C12.9344 10.4327 12.6357 10.1348 12.2676 10.1348ZM8.80078 5.59961H7.46777V4.2666H8.80078V5.59961ZM11.4678 5.59961H10.1348V4.2666H11.4678V5.59961Z" fill="#000091"/>
</svg>
